<svg xmlns="http://www.w3.org/2000/svg" xmlns:xlink="http://www.w3.org/1999/xlink" version="1.1" x="0px" y="0px" viewBox="0 0 40 50" enable-background="new 0 0 40 40" xml:space="preserve">
   <path fill-rule="evenodd" fill="#FFF" clip-rule="evenodd" d="M30.5,13.9c0-0.2,0-0.5,0-0.7c0-4.5-3.6-8.1-8.1-8.1  c-3.1,0-5.8,1.8-7.2,4.4C14.7,9,14,8.8,13.2,8.8c-2.1,0-3.7,1.7-3.7,3.8c0,0.5,0.1,1,0.3,1.4c-0.1,0-0.2,0-0.2,0c-2.8,0-5,2.3-5,5  c0,2.8,2.2,5,5,5h7l-1,4h2.6l-1.6,7l7-9h-2l1-2H30c0.1,0,0.1,0,0.2,0c0.1,0,0.2,0,0.3,0c2.8,0,5-2.3,5-5  C35.5,16.1,33.3,13.9,30.5,13.9z"/>
</svg>
