<svg xmlns="http://www.w3.org/2000/svg" xmlns:xlink="http://www.w3.org/1999/xlink" version="1.1" x="0px" y="0px" viewBox="0 0 100 125" style="enable-background:new 0 0 100 100;" xml:space="preserve">
   <style type="text/css">
      .st0{fill-rule:evenodd;clip-rule:evenodd;}
   </style>
   <path class="st0" d="M93.3,93.3c-2.4,2.4-6.2,2.4-8.6,0L68.5,77c-6.7,5-15,7.9-24,7.9c-22.4,0-40.5-18.1-40.5-40.5  S22.1,3.9,44.4,3.9s40.5,18.1,40.5,40.5c0,9-2.9,17.3-7.9,24l16.2,16.2C95.6,87.1,95.6,90.9,93.3,93.3z M44.4,16.1  c-15.7,0-28.4,12.7-28.4,28.4s12.7,28.4,28.4,28.4s28.4-12.7,28.4-28.4S60.1,16.1,44.4,16.1z"/>
</svg>
